<?xml version="1.0" ?><!DOCTYPE svg  PUBLIC '-//W3C//DTD SVG 1.1//EN'  'http://www.w3.org/Graphics/SVG/1.1/DTD/svg11.dtd'><svg enable-background="new 0 0 512 512" id="Layer_1" version="1.1" viewBox="0 0 512 512" xml:space="preserve" xmlns="http://www.w3.org/2000/svg" xmlns:xlink="http://www.w3.org/1999/xlink"><g><path d="M256.6,507.8C118.1,507.3,7.3,393.8,8.5,254.7C9.6,118.1,119.9,4.6,260.2,6.3   C397.3,7.9,507.1,121.1,505.5,260C504,396,394.7,507.7,256.6,507.8z M256.3,488.2c124.5,0.7,228-100.5,229.6-228.1   c1.6-130.4-102.5-233-226.5-234.3c-126-1.3-230.6,100.9-231.3,228.9C27.5,384.3,129.6,488.2,256.3,488.2z" fill="#080909"/><path d="M339,221c0,15.3,0.3,27.3-0.1,39.2c-0.5,12.6,3.5,23.4,11.1,33.3c8.5,11,8.4,11.2-2.3,20.2   c-7.7,6.6-15.5,13.2-23.2,19.7c-4.7,3.9-8.7,3.9-13.3,0c-6.8-5.7-12.8-12.1-17.4-19.8c-2.1-3.5-3.6-3.3-6.4-0.6   c-10.4,10.3-22.1,18.8-36.7,22.1c-14.3,3.2-28.7,4-43,0.4c-17.9-4.6-31.2-15.3-37-33.1c-8.7-26.6-5.5-51.4,14.2-72.4   c11.8-12.6,27.3-18.5,43.8-22.1c16.6-3.7,33.5-5.1,50.4-6.7c3-0.3,4-1.1,3.8-4.1c-0.3-5-0.1-10-0.4-15c-1.3-19.9-17-25.2-30.9-23.6   c-14.3,1.6-23.9,9-27.5,23.5c-1.3,5.4-4,6.7-9.6,6.1c-10.4-1.1-20.9-2.1-31.3-3.2c-9.7-1-11.6-3.6-9.3-12.9   c4.6-18.6,14.9-33.4,31.9-42c33.3-16.9,67.7-18.3,101.9-2.9c19.3,8.7,28.6,24.9,30.4,45.8C339.7,190,338.6,207.2,339,221z    M283,246.3c0-3.7-0.2-7.3,0.1-11c0.2-2.7-1-3.4-3.5-3.3c-10.6,0.5-21.2,1.5-31.3,5c-24.5,8.5-26.8,31.8-21.3,46.9   c3.3,8.9,9.9,13.8,19.6,14.4c12.2,0.7,20.9-5.3,27.6-14.8C281.8,272.2,283.1,259.4,283,246.3z" fill="#080909"/><path d="M254.1,408.1c-63.7-0.7-120.6-20.5-169.6-61.6c-1.5-1.3-3-2.6-4.4-4.1c-1.2-1.3-1.9-3-0.6-4.5   c1.1-1.3,2.7-1.1,4.1-0.4c3.1,1.6,6.2,3.2,9.3,4.9c38.8,20.7,80.3,33.2,123.8,38.3c59,6.9,116.2-0.5,171.4-22.7   c2.5-1,4.9-2.2,7.6-2c2.2,0.1,3.9,0.8,4.8,3c0.8,1.9,0.2,3.8-1.1,5.1c-1.8,1.7-3.8,3.3-5.9,4.6c-30.3,19.6-63.7,30.9-99.1,36.4   C281,407,267.6,408.4,254.1,408.1z" fill="#F6A61F"/><path d="M395.1,344c-7.8-0.1-15.6,0.9-23.4,1.6c-2,0.2-4.7,1.5-5.6-1.4c-0.7-2.4,1.7-3.4,3.3-4.4   c13.7-8.2,28.6-10.2,44.2-9.3c4.3,0.3,8.6,0.8,12.8,2.2c3.7,1.2,5.6,3.4,5.5,7.3c-0.6,20.2-7.4,37.7-22.1,51.8   c-1.4,1.4-3.2,3.1-5.2,1.7c-2.3-1.6-0.4-3.6,0.3-5.4c3.5-9,7.1-17.9,9.4-27.3c0.2-0.6,0.4-1.3,0.5-1.9c2.1-10.8-0.7-14.4-11.7-14.9   C400.4,343.9,397.7,344,395.1,344z" fill="#F6A61F"/></g></svg>